PathFileType	4	(X/Y/Z)	C:/Users/opensim2020/Desktop/walking_exp_matlab/subject02_walking08_straight_01.trc																																																																																																																									
DataRate	CameraRate	NumFrames	NumMarkers	Units	OrigDataRate	OrigDataStartFrame	OrigNumFrames																																																																																																																					
100	100	4	41	mm	100	802	324																																																																																																																					
Frame#	Time	LFHD			RFHD			LBHD			RBHD			C7			T10			CLAV			STRN			RBAK			LSHO			LUPA			LELB			LFRM			LWRA			LWRB			LFIN			RSHO			RUPA			RELB			RFRM			RWRA			RWRB			RFIN			LASI			RASI			LPSI			RPSI			LTHI			LKNE			LTIB			LANK			LHEE			LTOE			RTHI			RKNE			RTIB			RANK			RHEE			RTOE			*39			*40		
		X1	Y1	Z1	X2	Y2	Z2	X3	Y3	Z3	X4	Y4	Z4	X5	Y5	Z5	X6	Y6	Z6	X7	Y7	Z7	X8	Y8	Z8	X9	Y9	Z9	X10	Y10	Z10	X11	Y11	Z11	X12	Y12	Z12	X13	Y13	Z13	X14	Y14	Z14	X15	Y15	Z15	X16	Y16	Z16	X17	Y17	Z17	X18	Y18	Z18	X19	Y19	Z19	X20	Y20	Z20	X21	Y21	Z21	X22	Y22	Z22	X23	Y23	Z23	X24	Y24	Z24	X25	Y25	Z25	X26	Y26	Z26	X27	Y27	Z27	X28	Y28	Z28	X29	Y29	Z29	X30	Y30	Z30	X31	Y31	Z31	X32	Y32	Z32	X33	Y33	Z33	X34	Y34	Z34	X35	Y35	Z35	X36	Y36	Z36	X37	Y37	Z37	X38	Y38	Z38	X39	Y39	Z39	X40	Y40	Z40	X41	Y41	Z41
																																																																																																																												
244	2.43	523.82269	1744.63989	-1152.25989	509.16135	1724.77136	-1009.90924	394.93997	1670.09302	-1175.14343	367.87073	1648.89905	-1035.65637	332.41162	1528.86133	-1100.66382	281.59027	1250.80334	-1095.86938	470.3576	1460.12244	-1114.21826	524.15143	1289.24951	-1107.4668	276.14694	1352.95911	-1036.60437	403.02893	1503.07336	-1282.91382	423.86359	1306.63123	-1376.75342	452.6868	1170.14685	-1400.67676	501.05493	1047.70544	-1417.96814	588.66272	943.88074	-1387.26196	546.33789	933.7901	-1423.37817	585.59717	881.29669	-1430.63147	414.23685	1492.78479	-915.90509	393.73004	1300.11841	-833.75629	417.23499	1154.15161	-815.65253	467.04922	1043.276	-802.84259	537.57922	929.3858	-829.89673	493.5433	915.52899	-795.90833	542.52881	861.46869	-798.18036	522.07831	994.71527	-1238.83105	524.55939	984.11603	-979.77539	311.34885	1032.44861	-1150.67004	307.58231	1031.34583	-1035.92151	454.53781	680.05933	-1271.53271	413.99738	479.1658	-1234.96826	351.98813	293.47235	-1226.74744	348.36145	72.04206	-1179.82605	312.50168	44.6939	-1127.99683	505.28348	36.80722	-1191.60034	505.7641	686.02161	-890.08813	558.74518	488.84561	-904.8045	471.80725	323.7973	-904.75507	411.94919	140.25854	-937.43878	381.08209	86.75405	-999.69281	535.97382	56.01579	-887.2981	413.18695	1809.06848	-1072.724	2845.17163	1033.9502	-3360.38647
245	2.44	531.87921	1744.01038	-1151.88977	516.59094	1723.79749	-1009.57477	402.65814	1670.26184	-1175.38708	374.93103	1648.73572	-1036.09619	339.3262	1528.5929	-1101.47131	287.21909	1250.80286	-1096.31848	477.19293	1459.68921	-1114.79333	530.65137	1288.74133	-1108.18042	282.7562	1352.82776	-1037.46924	410.32626	1503.00122	-1283.40674	433.27448	1307.15662	-1377.71692	463.98172	1170.8252	-1401.49377	514.70142	1049.19141	-1418.02991	603.73505	946.9632	-1385.98389	562.19257	936.00562	-1422.5448	602.52338	884.52423	-1429.53711	420.66907	1492.52295	-916.50079	400.03824	1299.75793	-834.41675	423.16217	1153.86548	-816.21997	472.87317	1042.54663	-803.37677	543.50726	929.01453	-830.19696	499.30975	915.01135	-796.52014	548.49408	861.12628	-798.42041	528.11395	993.85492	-1239.30676	531.14191	984.08752	-980.01068	317.44675	1032.12708	-1150.76404	313.80112	1030.98157	-1036.20325	458.36279	679.44574	-1271.58777	416.84604	478.83981	-1234.70215	353.53406	293.60211	-1226.39111	348.52869	72.17619	-1179.63037	312.58453	44.85036	-1127.77051	505.3345	36.79761	-1191.61475	515.02667	686.57184	-890.63739	570.24866	489.5401	-906.1723	489.1506	321.24054	-904.89453	435.7674	135.62886	-936.55359	406.51733	80.83017	-998.5838	563.3656	56.07083	-887.51544	421.33051	1808.73328	-1072.36914	2845.22827	1034.08252	-3360.3186
246	2.45	539.97601	1743.27356	-1151.35815	524.14893	1722.6283	-1009.20972	410.36639	1670.24951	-1175.69324	382.00159	1648.76685	-1036.56226	346.30148	1528.38379	-1102.11719	294.71786	1250.54651	-1096.83923	484.10626	1459.21143	-1115.28967	537.18695	1288.13843	-1108.73865	289.27246	1352.59375	-1038.2334	417.71167	1503.01526	-1283.89417	442.51889	1307.54468	-1378.29724	475.06918	1171.47412	-1402.22107	528.07971	1050.55957	-1417.88074	618.54279	950.15839	-1384.62378	577.5285	938.31146	-1421.66895	618.91388	887.47748	-1427.89392	427.26218	1491.98633	-916.99561	406.16357	1299.18225	-835.0683	429.0578	1153.37976	-816.73083	478.78976	1042.17944	-803.7641	549.44904	928.54688	-830.42084	505.26303	914.56158	-796.76355	554.36963	860.65967	-798.68115	534.14459	993.13428	-1239.60229	537.76068	984.09259	-980.19611	323.55548	1031.70923	-1150.87659	320.14368	1030.53784	-1036.427	462.27087	678.82025	-1271.56555	419.65836	478.53888	-1234.40466	355.04343	293.77112	-1226.06873	348.67722	72.33414	-1179.42236	312.6824	45.01833	-1127.26099	505.70334	36.82514	-1191.61133	524.14417	687.05841	-891.06958	581.50116	490.02823	-907.47717	506.41254	318.76285	-904.95886	459.83942	131.19756	-935.82422	431.93384	75.11961	-997.43115	590.59155	56.36325	-887.83398	429.49747	1808.31836	-1071.97266	2845.77759	1034.04224	-3356.99438
247	2.46	548.07098	1742.48499	-1150.81104	531.64398	1721.26831	-1008.12469	418.14355	1670.2428	-1175.75391	389.29645	1648.42786	-1036.7616	353.33737	1528.24243	-1102.53943	301.30096	1250.32141	-1097.22095	490.98361	1458.60889	-1115.65051	543.76465	1287.45459	-1109.21655	295.90921	1352.42578	-1038.84094	425.08078	1502.77063	-1284.21326	451.60733	1307.85022	-1378.75647	486.00836	1172.06824	-1402.75122	541.23145	1051.99268	-1417.61353	633.17712	953.36414	-1383.11206	592.59991	940.56281	-1420.57544	635.16882	890.79224	-1426.40442	433.99286	1491.40881	-917.46912	412.4816	1298.67761	-835.61475	434.88034	1152.84412	-817.12573	484.61984	1041.64355	-804.35156	555.29236	927.98627	-830.62903	511.07251	913.97162	-797.20874	560.12744	860.08875	-798.77191	540.2724	992.45837	-1239.83765	544.41931	983.97534	-980.48822	329.70123	1031.22144	-1150.89795	326.48267	1030.05896	-1036.53223	466.2778	678.32709	-1271.39905	422.42676	478.24713	-1234.18591	356.54196	293.93726	-1225.82483	348.83453	72.49143	-1179.19336	312.74921	45.1744	-1126.99646	505.53687	36.72717	-1191.5896	533.22992	687.46997	-891.38763	592.15314	490.41171	-908.73291	523.49512	316.45215	-904.90216	483.64417	127.12358	-934.90631	456.9993	70.12096	-995.97247	617.65027	57.06345	-888.33698	437.56146	1807.90637	-1071.64368	NaN	NaN	NaN
